<?xml version="1.0" encoding="utf-8"?>
<!-- Generator: Adobe Illustrator 24.0.0, SVG Export Plug-In . SVG Version: 6.00 Build 0)  -->
<svg version="1.1" id="Layer_1" xmlns="http://www.w3.org/2000/svg" xmlns:xlink="http://www.w3.org/1999/xlink" x="0px" y="0px"
	 viewBox="0 0 1000 1000" style="enable-background:new 0 0 1000 1000;" xml:space="preserve">
<style type="text/css">
	.st0{fill:#FC2411;}
	.st1{font-family:'Impact';}
	.st2{font-size:110px;}
</style>
<path class="st0" d="M593.64,607.71H406.69c-70.95,0-128.48-57.52-128.48-128.48v-99.21c0-70.95,57.52-128.48,128.48-128.48h186.95
	c70.95,0,128.48,57.52,128.48,128.48v99.21C722.12,550.19,664.6,607.71,593.64,607.71z"/>
<path d="M726.68,357.28h-170.7c-22.43,0-40.99,16.87-43.69,38.58h-24.24v-43.79c0-24.28-19.76-44.04-44.04-44.04h-170.7
	c-24.28,0-44.04,19.76-44.04,44.04v110.74c0,24.28,19.76,44.04,44.04,44.04h170.7c24.28,0,44.04-19.76,44.04-44.04v-41.44h23.89
	v90.69c0,24.28,19.76,44.04,44.04,44.04h170.7c24.28,0,44.04-19.76,44.04-44.04V401.32C770.72,377.04,750.96,357.28,726.68,357.28z
	 M468.06,462.82c0,13.26-10.78,24.04-24.04,24.04h-170.7c-13.26,0-24.04-10.78-24.04-24.04V352.08c0-13.26,10.78-24.04,24.04-24.04
	h170.7c13.26,0,24.04,10.78,24.04,24.04V462.82z M750.72,512.06c0,13.25-10.78,24.04-24.04,24.04h-170.7
	c-13.25,0-24.04-10.78-24.04-24.04V401.32c0-13.26,10.78-24.04,24.04-24.04h170.7c13.25,0,24.04,10.78,24.04,24.04V512.06z"/>
<g>
	<circle cx="414.56" cy="432.43" r="36.57"/>
</g>
<g>
	<circle cx="583.13" cy="487.99" r="34.68"/>
</g>
<g>
	<path d="M512.17,577.76H475.6c-1.93,0-3.5-1.57-3.5-3.5s1.57-3.5,3.5-3.5h36.57c1.93,0,3.5,1.57,3.5,3.5
		S514.1,577.76,512.17,577.76z"/>
</g>
<text transform="matrix(0.6153 0 0 1 253.4702 747.2242)" class="st0 st1 st2">GEEK THEORY</text>
</svg>
